/* XPM */
static char *_250f84ea39a47cff4cf387f54a7e312mCksui34dUE88Gz6[] = {
/* columns rows colors chars-per-pixel */
"50 50 149 2 ",
"   c #010101",
".  c #080807",
"X  c #060708",
"o  c #0C0B0B",
"O  c #10100E",
"+  c #0D0F10",
"@  c #0F1112",
"#  c #141414",
"$  c #181714",
"%  c #191917",
"&  c #151618",
"*  c #17191B",
"=  c #1C1C1B",
"-  c #21211E",
";  c #1C1F22",
":  c #1E2124",
">  c #242422",
",  c #292723",
"<  c #292925",
"1  c #232629",
"2  c #26282B",
"3  c #2E2D2A",
"4  c #312F2A",
"5  c #33322D",
"6  c #2A2D30",
"7  c #2E3133",
"8  c #363531",
"9  c #383732",
"0  c #3B3A34",
"q  c #353A3D",
"w  c #3D3D3D",
"e  c #403E37",
"r  c #413F39",
"t  c #45423B",
"y  c #48453E",
"u  c #373C41",
"i  c #393E43",
"p  c #3D4143",
"a  c #3D4249",
"s  c #454544",
"d  c #4A4740",
"f  c #4C4942",
"g  c #44484A",
"h  c #4A4B4B",
"j  c #504D47",
"k  c #55524C",
"l  c #58564F",
"z  c #454B52",
"x  c #494E52",
"c  c #4B5156",
"v  c #4D535A",
"b  c #525354",
"n  c #5A5751",
"m  c #5C5A55",
"M  c #555A5F",
"N  c #5B5C5B",
"B  c #615F59",
"V  c #65625D",
"C  c #545B60",
"Z  c #5D5F62",
"A  c #5B6165",
"S  c #5E656A",
"D  c #5F6873",
"F  c #6B6863",
"G  c #606569",
"H  c #6B6D6E",
"J  c #706D68",
"K  c #74736F",
"L  c #656E74",
"P  c #6C6E70",
"I  c #656E7A",
"U  c #66707A",
"Y  c #6B747C",
"T  c #717171",
"R  c #7C7A75",
"E  c #70797F",
"W  c #7E7D7A",
"Q  c #6B7581",
"!  c #737D83",
"~  c #737D8B",
"^  c #778087",
"/  c #77828E",
"(  c #7A838B",
")  c #7F898F",
"_  c #778290",
"`  c #7A8593",
"'  c #7D8897",
"]  c #7E8A99",
"[  c #848383",
"{  c #8A8884",
"}  c #8C8C8C",
"|  c #918F8B",
" . c #828D95",
".. c #828E9D",
"X. c #85909B",
"o. c #8C979F",
"O. c #959494",
"+. c #9C9A96",
"@. c #9B9B9B",
"#. c #8692A2",
"$. c #8A97A7",
"%. c #8E9BAB",
"&. c #919FAF",
"*. c #99A5AD",
"=. c #94A1B3",
"-. c #9AA7B0",
";. c #97A6B8",
":. c #98A7B9",
">. c #9DACBE",
",. c #A4A4A3",
"<. c #A9A7A4",
"1. c #A9A9A6",
"2. c #A7A8A8",
"3. c #ACACAC",
"4. c #B0AFAC",
"5. c #B3B2AF",
"6. c #A3B0B9",
"7. c #B4B3B2",
"8. c #B8B7B5",
"9. c #BBBAB7",
"0. c #BBBBBA",
"q. c #C1C0BE",
"w. c #9FAEC1",
"e. c #A0AFC2",
"r. c #A4B3C5",
"t. c #AEBCC5",
"y. c #A7B6C9",
"u. c #ABBBCE",
"i. c #B1BFC9",
"p. c #ADBDD1",
"a. c #B4C3CD",
"s. c #B3C2D2",
"d. c #B8C7D4",
"f. c #BBCBD5",
"g. c #BFCED9",
"h. c #C4C4C3",
"j. c #CAC9C7",
"k. c #CDCDCD",
"l. c #D0D0CE",
"z. c #C0CFDA",
"x. c #C1D1DB",
"c. c #D5D5D5",
"v. c #DCDCDC",
"b. c #E0E0DF",
"n. c #E4E4E4",
"m. c #E8E8E7",
"M. c #EBEBEB",
"N. c #F3F3F3",
"B. c #FCFCFD",
/* pixels */
"f.f.f.z.f.f.f.f.g.d.g.f.f.f.f.f.f.f.f.f.a.a.a.f.f.u.u.u.u.u.u.u.u.u.u.y.u.u.u.u.y.u.y.p.u.u.u.u.u.u.",
"f.f.f.f.f.f.z.f.d.d.d.g.f.f.f.f.f.f.f.g.Y 6 A f.f.i.u.u.u.u.u.u.u.u.u.u.u.u.u.u.p.u.u.u.u.u.u.y.u.u.",
"f.f.f.f.f.f.f.f.g.g.d.g.f.f.f.f.f.f.g.g.v   q f.f.u.u.u.u.u.u.y.u.y.u.y.u.u.u.u.u.u.u.u.u.u.u.p.u.p.",
"f.f.f.f.f.d.d.d.d.d.d.s.f.d.f.d.d.a.Q D H J H G I >.u.u.u.p.u.p.u.s.u.a.p.p.p.u.p.u.p.p.p.u.u.t.y.p.",
"g.f.f.d.u.a.u.u.u.u.u.u.u.u.u.u.s.>.;   [ m.%.  o &.p.u.u.d.f.d.f.f.f.f.f.a.f.f.f.d.f.f.f.d.u.u.u.p.",
"f.f.f.d.u.u.u.u.y.u.u.u.u.u.u.u.u.>.:   [ M.7.8 w _ #.:.s.d.f.f.f.f.f.f.z.f.f.f.f.f.f.f.f.f.u.u.u.y.",
"f.f.f.d.u.u.u.u.u.u.u.u.u.u.u.u.s.w.:   O.B.M.v.h.2 . Q s.f.f.f.f.f.f.f.f.f.f.f.f.f.f.f.f.d.s.u.u.u.",
"f.f.f.d.u.u.u.u.u.u.u.u.u.u.u.u.y.w.:   } N.M.n.l.3 . U y.a.f.f.f.f.j.f.f.f.z.f.f.f.f.f.f.f.u.u.u.u.",
"f.f.f.d.p.u.u.u.u.u.u.u.u.y.u.u.u.>.:   t J | N.M.0.3.Z 1 A f.f.f.f.f.f.f.z.f.f.f.f.f.f.f.d.p.u.y.u.",
"f.g.f.f.u.u.u.u.y.u.u.u.u.u.u.u.u.>.:   - t R B.B.m.n.m   i f.g.f.d.f.f.f.f.f.f.f.f.z.f.f.d.p.u.u.u.",
"f.f.f.d.u.u.u.u.u.u.u.u.u.u.u.u.p.>.;   3 y B +.,.b.M.2.T P A I a.f.f.f.f.f.f.f.f.f.f.f.f.f.i.p.u.u.",
"f.f.f.f.u.u.u.u.u.u.u.u.u.u.u.u.p.>.>   3 y y t n b.B.M.m.O.  # 6.z.f.g.f.f.z.f.z.f.f.f.z.d.u.u.u.u.",
"f.f.f.f.t.u.u.u.u.u.u.u.u.u.u.u.u.>.;   , y y t j 8.l.v.M.@.  * 6.f.f.f.f.f.f.g.d.f.f.f.f.f.p.u.u.u.",
"f.f.f.d.u.u.u.y.u.u.u.u.u.u.u.u.p.>.:   3 y t 8 5 y j 5.B.2.  * 6.f.f.f.f.f.f.f.j.f.f.f.f.f.p.u.y.u.",
"f.f.f.d.u.u.u.u.y.u.u.y.u.u.u.u.w.=.;   , y t 5 8 t y 1.N.@.  % *.a.d.f.f.f.f.f.f.f.f.f.f.d.u.u.u.u.",
"g.f.f.f.s.y.u.u.u.u.u.u.u.u.u.] 2 : X   , y e 5 5 8 5 s b s - > 2 <  .x.f.f.f.f.f.f.f.f.f.f.i.u.u.u.",
"f.f.f.d.p.p.p.y.u.u.p.p.p.p.p.] X       , y t 5 5 5 5 < , , < >     ^ x.g.g.z.z.f.f.z.f.f.f.p.u.y.u.",
"f.f.f.d.p.y.p.u.u.u.r.D v v v i     - , 5 0 0 5 5 4 3 < > , , > % $ p C C C C M M M C C M L r.u.u.a.",
"f.f.f.d.u.y.u.u.u.p.r.:           X 0 f 0 5 5 5 5 < < , > - > > < < o                     * >.p.u.u.",
"z.f.f.d.p.p.u.p.w.' ~ x w s f q # $ 9 t 9 5 5 > - - = - - > - > < , = # # O # O # 8 s s w h / ] >.u.",
"f.f.f.f.p.u.i.p...o + 3.v.m.N.h.f t 9 5 5 5 -         # > > - > < < 0 y y y y t y 9.N.M.b.0.* X ` u.",
"f.f.f.f.d.d.i.u...* = 9.n.n.N.q.f t 5 5 5 5 > # @ @ o * - - > > < , 0 y y y y k l q.B.m.l.7.; + ] s.",
"z.f.f.f.f.z.E ; f 5.i.M.B.<.V n 9 8 5 5 %   q *.-.%.$.a   @ < < 4 5 5 8 0 y n j.v.n.m.@.2 q ..%.e.u.",
"f.f.f.f.f.z.A   8 v.n.N.B.+.t t 5 5 5 5 #   w d.f.s.s.x   o < < 5 5 5 5 0 t m m.B.m.n.{   * >.p.u.u.",
"d.d.f.s.I c H [ ,.m.m.,.| V 9 9 5 5 3 3 #   u a.d.u.u.x   O 3 3 5 5 0 e V 4.8.n.M.} m S U ^ r.s.s.u.",
"p.i.s.y.1   T n.m.B.N.F t 0 5 5 5 5 < < O   q u.s.f.g.c   O 5 5 5 5 e e { B.B.n.b.s   z f.f.d.d.d.d.",
"u.e._ ~ v s +.M.b.h.9.V y 0 4 4 3 3 < , $ . 6 / _ '  .p o = 5 5 9 0 V W <.N.m.,.@.M u Y f.f.f.f.f.f.",
"p.#.o o 2.b.M.B.l.j f y y 9 < < < < , - > - % X X     - 5 5 5 5 y y 8.B.M.n.j.=   ) f.d.g.f.f.f.f.f.",
"p.$.* % ,.k.c.n.9.y t r e 4 > , < 1 - - > > %     .   - 5 5 5 5 t f 1.n.v.k.7.2 # ] f.f.d.d.d.f.f.f.",
"y.y.=.&.i - > 1 = o o . o . X O < < , > - , - , - < < 3 5 5 5 9 t y 5 1 : : 7 ] &.r.u.s.u.s.f.d.f.f.",
"p.p.p.y.2                     . < < > - - - - < 3 5 5 5 5 5 5 5 t y %       & ;.s.u.u.u.u.u.d.f.f.g.",
"p.y.u.u. .! ! ! ! ! ! ! ! ! ^ A # @ - < < , < 3 4 5 5 5 5 9 t 0 - = v Q U Y ~ r.y.u.y.u.u.s.d.d.g.d.",
"u.u.u.p.z.z.z.z.z.z.g.g.g.g.x.o.    - < < > < 5 5 5 5 5 5 9 f e     ! p.p.p.p.u.u.u.u.u.u.u.s.d.f.f.",
"u.u.y.p.d.d.f.f.f.f.f.f.f.f.g.-.g p > % h T N 0 9 5 5 9 9 8 5 5 i i ..p.u.u.u.u.u.u.u.u.u.u.s.g.f.g.",
"u.u.p.p.f.z.z.f.f.f.f.f.f.g.f.f.f.t.>   | B.h.f t 5 5 e d 4   & =.y.u.p.u.u.u.u.u.u.u.u.u.p.d.g.f.f.",
"u.p.y.p.a.z.d.f.f.f.f.j.f.f.f.f.f.u.:   | B.j.B n 0 5 t y 4   & =.p.p.y.u.y.u.u.u.u.y.u.u.p.d.d.f.f.",
"y.p.p.p.d.f.f.f.f.f.f.g.f.f.f.g.j.t.:   [ m.n.n.c.B t y y 5   # =.p.u.u.u.u.u.u.u.u.u.u.u.p.d.g.f.f.",
"u.u.y.p.d.f.f.f.f.f.f.f.f.f.f.f.z.t.1   ! b.m.B.M.V y f y 5   # =.p.u.u.u.u.u.u.u.y.u.u.u.u.d.d.f.g.",
"u.u.u.p.f.f.f.f.f.f.f.f.f.g.f.f.f.a.X.( G h W m.n.q.9.K y 3   # =.p.u.u.y.u.u.y.u.u.u.u.u.p.d.f.f.f.",
"u.u.u.u.d.z.f.z.f.z.f.f.f.f.f.f.f.z.z.x.v   w b.n.B.B.| t 3   & =.p.u.u.u.u.u.u.u.u.u.u.u.p.d.f.f.f.",
"y.p.t.u.f.f.f.g.f.f.j.f.f.f.f.f.f.f.z.f.^ s C } O.n.N.7.{ m   & =.u.y.u.u.u.u.u.y.u.u.u.u.u.s.d.f.f.",
"p.y.p.s.f.f.f.f.f.f.f.f.f.f.f.f.f.f.f.f.d.p.`   # 0.n.M.B.2.  # =.p.u.u.y.u.u.y.u.u.u.u.u.u.d.g.f.g.",
"p.y.u.u.d.f.f.f.f.f.f.f.f.f.f.f.f.f.f.f.f.s.] * 2 2.h.n.B.2.  & =.p.u.u.u.u.u.u.u.u.u.u.u.u.d.d.f.f.",
"u.p.y.s.f.f.f.f.f.z.f.f.f.f.f.g.f.z.f.f.d.a.r.;.%.6 & O.M.O.  # =.p.u.u.u.u.u.u.u.u.u.u.u.p.d.g.f.f.",
"u.u.u.p.d.f.f.f.f.f.f.d.g.f.f.f.f.f.f.f.f.i.u.p.>.:   [ n.O.. * =.p.u.u.y.y.u.u.u.u.u.y.u.p.d.f.f.f.",
"u.u.y.p.d.f.f.d.f.f.f.d.f.f.d.f.f.f.f.d.d.u.u.u.y.X. .G g C ~ ` r.p.u.u.s.s.s.u.u.p.u.s.u.p.d.f.f.f.",
"u.u.u.p.p.p.s.u.u.s.u.s.s.u.a.t.u.p.u.p.p.u.u.u.u.f.f.x   i d.g.d.d.d.d.d.d.d.d.d.d.d.d.d.d.f.f.f.f.",
"u.p.y.u.u.u.y.u.u.y.u.u.y.u.u.u.u.u.u.u.u.u.u.u.p.f.f.^ z ! d.f.g.d.g.d.d.g.f.f.f.f.f.g.f.f.f.f.f.f.",
"u.u.y.u.u.u.y.u.u.u.u.u.y.u.u.u.u.u.u.y.u.u.u.u.p.d.g.g.g.g.g.f.f.f.f.f.g.f.f.f.f.f.f.g.f.f.f.f.f.f.",
"u.u.u.u.u.u.u.u.u.u.u.u.u.u.u.u.u.u.u.u.u.u.y.u.p.s.d.d.f.d.f.f.f.f.f.f.f.f.f.f.f.f.f.f.f.f.g.f.g.f."
};
