/* XPM */
static char *_43898adff0c4437ec88cc026dfdba61WzwESwz7LS7VjZTm[] = {
/* columns rows colors chars-per-pixel */
"38 38 8 1 ",
"  c #141B1B",
". c #345A52",
"X c #8F3E56",
"o c #E0394C",
"O c #56864C",
"+ c #A8A129",
"@ c #ABC2BC",
"# c #E3F1F5",
/* pixels */
"                                      ",
"                                      ",
"                                      ",
"                                      ",
"                                      ",
"                                      ",
"                                      ",
"                                      ",
"                                      ",
"                                      ",
"                                      ",
"                                      ",
"                                      ",
"                    ++++O             ",
"              ++O  ++++++O            ",
"             ++++O.++++++OOO          ",
"            +++++O.+  ++++++O         ",
"            +  ++O++  +++++++XXX      ",
"          OO+  +++++++++++++ooooX     ",
"         O+++++++++++++++++ooooooX    ",
"        O++++++O+O++++++++oooooooXX   ",
"        ++++++++++++++++++oooooooXX   ",
"       oo++++++OOOOOOOOOOOooooooXXX   ",
"      oooo++OOO###########XooooXXXX   ",
"      ooooOO##############@XXXXXXXX   ",
"      oooo################@@XXXXXX    ",
"      XooX###############@@@.XXXX     ",
"      XXXX##############@@@@..OOOOO   ",
"       XXX@############@@@@..OOOOOOOO ",
"        XX@@@#######@@@@@@..OOO+++++OO",
"           @@@@@@@@@@@@@...OO++++++++O",
"            .@@@@@@@@@....OOOOO+++++++",
"          OOO...........OOOO+++O++++++",
"         OOOOOOO......OOOO++++++++++++",
"        OOO++++OOOOOOOOOO+++++++++++++",
"        OO++++++OOOOOOOOO++O++++++++++",
"       OO++O++O++OO....O++O++O++++++++",
"       OO+++O++O+OOO..OO++O+O+++++++++"
};
