/* XPM */
static char *result[] = {
/* columns rows colors chars-per-pixel */
"50 50 199 2 ",
"   c #211F30",
".  c #242333",
"X  c #2C2533",
"o  c #2E2936",
"O  c #252A3C",
"+  c #2C2C3C",
"@  c #352C36",
"#  c #33303D",
"$  c #3A333B",
"%  c #583B3D",
"&  c #6A393D",
"*  c #292F41",
"=  c #25374C",
"-  c #2B374A",
";  c #323243",
":  c #3A3947",
">  c #283E53",
",  c #38404F",
"<  c #244057",
"1  c #2B4359",
"2  c #37485A",
"3  c #254A64",
"4  c #274F6A",
"5  c #25516C",
"6  c #2D516B",
"7  c #345164",
"8  c #365369",
"9  c #3B576A",
"0  c #295A76",
"q  c #275E7C",
"w  c #3E697D",
"e  c #5A4C4C",
"r  c #454755",
"t  c #464A5A",
"y  c #494C5D",
"u  c #4D505F",
"i  c #57545E",
"p  c #694B49",
"a  c #764944",
"s  c #7B4E45",
"d  c #69524D",
"f  c #77534D",
"g  c #7D6352",
"h  c #70645E",
"j  c #4E5264",
"k  c #475769",
"l  c #555868",
"z  c #635862",
"x  c #58696E",
"c  c #496677",
"v  c #5D6274",
"b  c #586779",
"n  c #5C747F",
"m  c #616674",
"M  c #606678",
"N  c #656B7B",
"B  c #686E7B",
"V  c #706F76",
"C  c #865448",
"Z  c #8A5B4C",
"A  c #96594A",
"S  c #A54E46",
"D  c #A64F48",
"F  c #A8594B",
"G  c #846E5C",
"H  c #946853",
"J  c #85725F",
"K  c #9B755B",
"L  c #B2644F",
"P  c #A76D55",
"I  c #B36652",
"U  c #B56D55",
"Y  c #B86D54",
"T  c #B9775B",
"R  c #BD7759",
"E  c #877765",
"W  c #9D8368",
"Q  c #A78767",
"!  c #AF9271",
"~  c #AD9878",
"^  c #C1825F",
"/  c #C38963",
"(  c #CA9369",
")  c #CF9E6E",
"_  c #D09F6F",
"`  c #CFA070",
"'  c #D1A373",
"]  c #D4A877",
"[  c #D6AC7B",
"{  c #296786",
"}  c #2B6B8A",
"|  c #346985",
" . c #3B748D",
".. c #297193",
"X. c #317899",
"o. c #506B82",
"O. c #45778C",
"+. c #5D7385",
"@. c #507A8E",
"#. c #467C91",
"$. c #69788A",
"%. c #737B8B",
"&. c #757D90",
"*. c #2C87AE",
"=. c #3485A6",
"-. c #2C8CB3",
";. c #2D93BC",
":. c #3894B6",
">. c #4B8397",
",. c #4C899E",
"<. c #6A8793",
"1. c #7B8496",
"2. c #7A8497",
"3. c #7F8895",
"4. c #7E899C",
"5. c #69919C",
"6. c #498DA4",
"7. c #4E8FA6",
"8. c #5298AE",
"9. c #549EB3",
"0. c #5F9EB0",
"q. c #6595A3",
"w. c #709AA4",
"e. c #4DA1BB",
"r. c #55A1B7",
"t. c #57A5BB",
"y. c #72A9B4",
"u. c #2D9BC5",
"i. c #389EC3",
"p. c #2EA3CF",
"a. c #3EA1C4",
"s. c #2FA8D5",
"d. c #36ACD7",
"f. c #31ADDB",
"g. c #36B0DC",
"h. c #3BB4DE",
"j. c #5BAEC4",
"k. c #5AB4CC",
"l. c #48B6D9",
"z. c #59BBD5",
"x. c #6FB8C8",
"c. c #43BAE1",
"v. c #4BBDE2",
"b. c #54BAE0",
"n. c #63C3DA",
"m. c #4DC2E5",
"M. c #54C7E8",
"N. c #5CCDEB",
"B. c #6ED1E7",
"V. c #64D3EE",
"C. c #69D4EC",
"Z. c #69D7F0",
"A. c #6CD9F1",
"S. c #73DCF1",
"D. c #7ADEF3",
"F. c #7DE1F3",
"G. c #808895",
"H. c #848D9D",
"J. c #88919E",
"K. c #B59F83",
"L. c #848DA0",
"P. c #8B95A2",
"I. c #8A95A7",
"U. c #949EAA",
"Y. c #919EB1",
"T. c #8BAAB0",
"R. c #95A2B6",
"E. c #99A6B3",
"W. c #99A6BA",
"Q. c #9CAABE",
"!. c #A1AEB9",
"~. c #A6B2BD",
"^. c #D9B483",
"/. c #DBB886",
"(. c #DDBB8A",
"). c #DFC08E",
"_. c #E0C18F",
"`. c #E2C694",
"'. c #9FADC1",
"]. c #A3B2C6",
"[. c #A9B6C1",
"{. c #A9B8C7",
"}. c #AABACE",
"|. c #B1BEC9",
" X c #85C9D4",
".X c #B5C3CD",
"XX c #B7C5D0",
"oX c #BCCBD5",
"OX c #85DBEB",
"+X c #93E5EE",
"@X c #87E5F4",
"#X c #96E8F5",
"$X c #B8ECF7",
"%X c #A2F2F8",
"&X c #B4F4F9",
"*X c #CFEBF6",
"=X c #CAF1FA",
"-X c #DEF8FC",
";X c #EAFAFD",
/* pixels */
"oXoXoXoXoXoXoXoXoXoXoXoXoXoXoXoXoXoXoXoXoXoXoXoXoX}.}.}.}.}.}.}.}.}.}.}.}.}.}.}.}.}.}.}.}.}.}.}.}.}.",
"oXoXoXoXoXoXoXoXoXoXoXoXoXoXoXoXoXoXoXoXoXoXoXoXoX}.}.}.}.}.}.}.}.{.}.}.}.}.}.}.}.}.}.}.}.}.}.}.}.}.",
"oXoXoXoXoXoXoXoXoXoXoXoXoXoXoXXXU.H.G.G.3.3.3.3.3.&.&.&.&.2.&.&.1.%.I.].}.}.}.}.}.}.}.}.}.}.}.}.}.}.",
"oXoXoXoXoXoXoXoXoXoXoXoXoXoXoX{.l . . . . . . . . O . . . . . . . . k !.}.}.}.}.}.}.}.}.}.}.}.}.}.}.",
"oXoXoXoX}.}.}.}.}.}.}.}.Y.+.v b <.w.w.q.,.,.,.,.,.,.,.,.,.,.,.q.w.w.<.B P.oXoXoXoXoXoXoXoXoX}.}.}.}.",
"oXoXoXoX}.}.}.}.}.}.{.W.2.t , 2 x.%X%X@XA.A.A.A.A.A.A.A.A.A.A.@X%X%XT.9 V ~..XoXoXoXoXoXoXoX}.}.}.}.",
"oXoXoXoX}.}.}.}.}.}.'.b b T.x.j.B.OXF.S.A.A.A.A.A.A.A.A.A.A.A.S.F.F.OX X<.l E.oXoXoXoXoXoXoX}.}.}.}.",
"oXoXoXoX}.}.}.}.}.Y.&.n 5.@XF.A.N.z.r.8.8.8.8.8.8.8.8.8.8.8.8.8.8.8.0.y.c # J.oXoXoXoXoXoXoX}.}.}.}.",
"oXoXoXoX}.}.}.}.}.+.: T.+XS.S.Z.v.-.< O O O O O O O O O O O O O O O + O . ; J.oXoXoXoXoXoXoX}.}.}.}.",
"oXoXoXoX}.}.}.Y.+.$.w.B.F.S.N.l.=.9 p & & f g g g g g g E G g G E E E g g g V 3.|.oXoXoXoXoX}.}.}.}.",
"oXoXoXoX}.}.}.2.O 5.%X@XA.V.l.;.7 % F L S ^ ) _ ) ) ) ' (.^.' ^.`.`.(.] ` ! p i E.|.oXoXoXoX}.}.}.}.",
"oXoXoXoX}.}.}.2.O 5.%X@XN.l.=.3 d A D Y Q ( ) ) ) ) ) ' ] ^.(.^.[ ).`.).[ ) Q H i G.oXoXoXoX}.}.}.}.",
"oXoXoXoX}.].I.$.k y.#XF.M.g.{ X C L S I ) ) _ _ ) ) _ ) ) ] (.^.[ /.).`.(.[ ' K $ B oXoXoXoX}.}.}.}.",
"oXoXoXoX}.R.j c z.V.S.A.N.g.{ X C L S U ) _ ) ) _ ) ) ) ) ` ' ^._.[ [ `.`._.[ K @ B oXoXoXoX}.}.}.}.",
"oXoXoXoX}.R.r > O.#.#.>. .} < X C L S U ) ) ) ) ) ) ) ) ) ) ) [ ^.^.^.^.).`.(.! $ B oXoXoXoX}.}.}.}.",
"oXoXoXoX].I.r X X @ o o o X . o C L S U ) _ ) _ ) ) ) ) ) ) ) ) ' /.(.' ^.`.`.~ $ V oXoXoXoX}.}.}.}.",
"oXoXoXoX&.i f Z K W ~ K H Z % X C L S U ) ) _ ) ) ) ) ) ) _ ) ) ' ] [ /.^.[ (.~ : B oXoXoXoX}.}.}.}.",
"oXoXoXoXv @ a H K Q ~ Q K Z % X C L S U ) ) ) ) ) _ _ ) ) ) ) ) ) ) [ (.^.[ ^.! $ N oXoXoXoX}.}.}.}.",
"oXoXoXoXv   @ @ $ $ $ $ @ @ X X C L S U ) _ ) _ ) ) _ ) _ ) ) _ ) _ _ ' ^._.[ Q $ B oXoXoXoX}.}.}.}.",
"oXoXoXXX4.l + = q q q q q q > X C L S U ) ) ) ) ) ) ) ) ) ) ) ) ) ) ) ) [ ^.^.Q $ B oXoXoXoX}.}.}.}.",
"oXoXoXoX}.R.r 5 p.f.f.f.f.f.{ X C L S I ) ) ) ) ) _ ) ) ) ) ) ( ) ) ) _ _ _ (.~ $ B oXoXoXoX}.}.}.}.",
"oXoXoXoXoX!.t 5 p.c.M.M.m.f.{ . C L S L ^ ( ) _ _ _ T I I I I I I I T ( ) ) ( K @ b }.}.}.}.}.}.}.}.",
"oXoXoXoXoX!.t 5 p.m.A.A.N.c.X.1 d A D L I ^ ( ( ( ( Y D D D S S D D I ( ( / P f r %.}.}.}.}.}.}.}.}.",
"oXoXoXoXoX!.t 5 p.m.A.A.C.N.l.*.7 % F F S I R R R R Y L I L I I I I I R R U & i J.Q.}.}.}.}.}.}.}.}.",
"oXoXoXoXoX{.%.b ..a.M.C.A.A.N.l.X.9 p a & a s s s s s s s s s s s s s s s s z $.].}.}.}.}.}.}.}.}.}.",
"}.}.}.}.}.}.}.2.O } g.N.Z.A.A.C.c.*.=   .       .   . .   .   . . . .     ; J.XXoXoXoXoXoXoXoXoXoXoX",
"}.}.}.}.}.}.}.R.&.o.{ a.v.c.N.Z.N.l.X...................................3 ; P.oXoXoXoXoXoXoXoXoXoXoX",
"}.}.}.}.}.}.}.}.}.$.2 X.;.;.l.A.B.N.c.h.g.c.h.b.z.b.b.b.b.v.c.h.g.u.;.;.| r U.oXoXoXoXoXoXoXoXoXoXoX",
"}.}.}.}.}.}.}.}.}.W.L.k > > 6.A.A.Z.N.N.N.N.D.$X*X*X*X*X*X$X#XS.z.| > > +.E.|.oXoXoXoXoXoXoXoXoXoXoX",
"}.}.}.}.oXoXoXoXoXoX{.%.y . O.A.A.A.A.S.A.A.OX$X=X=X=X=X=X$X#XF.z.8 ; j G.}.}.}.}.}.}.}.}.}.oXoXoXoX",
"}.}.}.}.oXoXoXoXoXoXoX.XL.* O.A.A.A.A.A.A.A.A.S.S.S.S.S.S.S.A.A.z.8 u Y.{.}.}.}.}.}.}.}.}.}.oXoXoXoX",
"}.}.}.}.oXoXoXoXoXoX|.1.$.>.j.A.A.A.A.A.A.A.C.A.@X$X$X&X#X@XA.A.B.8.@.+.L.}.}.}.}.}.}.}.}.}.oXoXoXoX",
"}.}.}.}.oXoXoXoXoX.XE.l w n.A.A.A.A.A.A.A.A.A.A.#X;X;X-X&X@XS.A.A.A.9.* x Q.].}.}.}.}.}.}.}.oXoXoXoX",
"}.}.}.}.oXoXoXoXoXG.l 7.k.C.A.A.A.A.A.A.A.A.A.A.D.#X#X+X@XS.A.A.A.A.9.* ; j I.}.}.}.}.}.}.}.oXoXoXoX",
"}.}.}.}.oXoXoX[.P.+.w k.A.A.V.N.Z.A.A.A.A.A.A.A.A.A.S.D.S.A.A.A.A.A.9.* = 6 $.I.].}.}.}.}.}.oXoXoXoX",
"}.}.}.}.oXoXoXP.: >.n.A.A.A.m.h.M.A.A.A.A.A.A.A.A.A.#X#XD.A.A.A.A.A.9.* q ;.6 j Q.}.}.}.}.}.oXoXoXoX",
"}.}.}.}.oXoXoXH.O 7 #.#.6.v.:.} k.A.A.A.A.A.A.A.A.A.@X@XA.A.A.A.A.A.9.* x T.r t W.}.}.}.}.}.oXoXoXoX",
"}.}.}.}.oXoXoXJ.o X # + 7 ;.{ 1 r.A.A.A.A.A.A.A.A.A.A.A.A.A.A.A.A.A.r.1 g ) e t W.}.}.}.}.}.oXoXoXoX",
"}.}.}.}.oXoXoXJ.O h K.! J 7  .r.n.A.A.A.A.A.A.A.A.Z.Z.A.A.A.A.Z.A.A.n.t.n e @ t W.}.}.}.}.}.oXoXoXoX",
"}.}.}.}.oXoXoXU.k W ^.! E 7 6.S.A.A.A.n.t.t.t.t.j.t.t.t.t.t.t.n.A.A.A.A.>.. , m W.}.}.}.}.}.oXoXoXoX",
"}.}.}.}.oXoXoX.X[.B $ $ 9 -.l.S.A.A.A.7.- - - - - - - - - - - 7.A.A.A.A.#.* $.'.}.}.}.}.}.}.oXoXoXoX",
"}.}.}.}.oXoXoXoXoXI.v : 3 p.m.A.A.A.A.>.. y M M M N N v ; = q e.A.A.V.M.| * 4.}.}.}.}.}.}.}.oXoXoXoX",
"}.}.}.}.oXoXoXoXoXoX[.u 1 p.m.A.A.C.C.#.+ 2.}.}.}.oXoX!.r 5 s.v.Z.Z.b.d.{ ; 2.}.}.}.}.}.}.}.oXoXoXoX",
"}.}.}.}.oXoXoXoXoXoX[.u 3 u.m.A.A.k.O.$.J.W.}.}.}.oXoX!.r 5 s.h.c.c.i.0 o.L.'.}.}.}.}.}.}.}.oXoXoXoX",
"}.}.}.}.oXoXoXoXoXoX[.y 3 u.m.V.V.e.- N oX}.}.}.}.oXoX~.v 9 *.-.-.-.X.2 &.}.}.}.}.}.}.}.}.}.oXoXoXoX",
"}.}.}.}.oXoXoXoXoXoX[.j 3 p.m.V.v.:.= M oX}.}.}.}.oXoXXX~.%.> = = = k I.'.}.}.}.}.}.}.}.}.}.oXoXoXoX",
"}.}.}.}.}.}.}.}..X}.Q.t 1 p.l.m.-.| b G.}.}.}.}.}.oXoXoXoXE.N m m M 1.|.oXoXoXoXoXXXoXoXoXoXoXoXoXoX",
"}.}.}.}.}.}.}.}.}.}.W.y 3 u.s.p.4 y Y.}.}.}.}.}.}.oXoXoXoXoXoXoXoXoXoXoXoXoXoXoXoXoXoXoXoXoXoXoXoXoX",
"}.}.}.}.}.}.}.}.}.}.].w.+.0 0 0 o.L.'.}.}.}.}.}.}.oXoXoXoXoXoXoXoXoXoXoXoXoXoXoXoXoXoXoXoXoXoXoXoXoX",
"}.}.}.}.}.}.}.}.}.}.}.}.G.;   * 4.}.}.}.}.}.}.}.}.oXoXoXoXoXoXoXoXoXoXoXoXoXoXoXoXoXoXoXoXoXoXoXoXoX"
};
