/* XPM */
static char *_427c818e8824a40c039b6c73ef12ef1GxRW2mdRUyntC2Zc[] = {
/* columns rows colors chars-per-pixel */
"50 50 2 1 ",
"  c None",
". c white",
/* pixels */
"                                                  ",
"                                                  ",
"                                                  ",
"                                                  ",
"                                                  ",
"                 ........                         ",
"               ..       .                         ",
"               .  .. .. ..                        ",
"               .  .. ..  .                        ",
"               .         .                        ",
"                ..  ... ..                        ",
"                 ...    .                         ",
"        .           ....                          ",
"         ..         ...                           ",
"          .         . .                           ",
"           ..      .   .                          ",
"            .     .    .                          ",
"             .    .    .        ...               ",
"             .   .      .   ....                  ",
"              . .       . ..                      ",
"              . .        .                        ",
"               .         .                        ",
"               .         .                        ",
"              .           .                       ",
"              .            .                      ",
"             .             .                      ",
"             .              .                     ",
"            .               .                     ",
"            .                .                    ",
"            .                .                    ",
"           .                 .                    ",
"           .                 .                    ",
"           .                  .                   ",
"          .                   .                   ",
"          .                   .                   ",
"         .                    .                   ",
"         .                    .                   ",
"         .                    .                   ",
"        .                     ..                  ",
"                                                  ",
"                                                  ",
"                                                  ",
"                                                  ",
"                                                  ",
"                                                  ",
"                                                  ",
"                                                  ",
"                                                  ",
"                                                  ",
"                                                  "
};
