/* XPM */
static char *ab385b20e7d34600f3d364d8db6d82a4dHmgjRSqVxq9k039[] = {
/* columns rows colors chars-per-pixel */
"50 50 5 1 ",
"  c #9C5A3C",
". c #FF7E00",
"X c #E67F35",
"o c #E5AA7A",
"O c #EDAE80",
/* pixels */
"XXXXXXXXXXXXXXXXXXXXXXXXXXXXXXXXXXXXXXXXXXXXXXXXXX",
"XXXXXXXXXXXXXXXXXXXXXXXXXXXoooXXXXXXXXXXXXXXXXXXXX",
"XXXXXXXXXXXXXXXXXXXXXXXXXXXXXXooXXXXXXXXXXXXXXXXXX",
"XXXXXXXXXXXXXXXXXXXXXXXXXXXXXXXXXXXXXXXXXXXXXXXXXX",
"OOOOOOOOOOOOOOOOOOOOOOOOOOOOOOOOOOOOOOOOOOOOOOOOOO",
"O....OOOOOOOOO..OOOOOOOOOOOO.OOOOOOOOOOOOOOOOO..OO",
"OOOOO..OOOOOOOOOOOOOO..OOOOOO..OOOOOOOOOO.OO...OOO",
"OOOOOO.OOOOOOOOOOOOOOOOOOOOOOOOOOOOOOOO...OOOoOOOO",
"..................................................",
"..................................................",
"..................................oo..............",
"..........  ...       ....      ..................",
".......   ..................................     .",
"                                                  ",
"                                                  ",
"                                                  ",
"                                                  ",
"XXXXXXXXXXXXXXXXXXXXXXXXXXXXXXXXXXXXXXXXXXXXXXXXXX",
"XXXXXXXXXXXXXXXXXXXXXXXXXXXXXoooXXXXXXXXXXXXXXXXXX",
"XXXXXXXXXXXXXXXXXXXXXXXXXXXXXXXXooXXXXXXXXXXXXXXXX",
"XXXXXXXXXXXXXXXXXXXXXXXXXXXXXXXXXXXXXXXXXXXXXXXXXX",
"OOOOOOOOOOOOOOOOOOOOOOOOOOOOOOOOOOOOOOOOOOOOOOOOOO",
"O....OOOOOOOOOO..OOOOOOOOOOOOO.OOOOOOOOOOOOOOOOOO.",
"OOOOO...OOOOOOOOOOOOOO...OOOOOO..OOOOOOOOOOO.OO...",
"OOOOOO..OOOOOOOOOOOOOOOOOOOOOOOOOOOOOOOOOO...OOOoO",
"..................................................",
"..................................................",
"....................................oo............",
"...........  ...       .....      ................",
"........   ....................................   ",
"                                                  ",
"                                                  ",
"                                                  ",
"                                                  ",
"XXXXXXXXXXXXXXXXXXXXXXXXXXXXXXXXXXXXXXXXXXXXXXXXXX",
"XXXXXXXXXXXXXXXXXXXXXXXXXXXXXoooXXXXXXXXXXXXXXXXXX",
"XXXXXXXXXXXXXXXXXXXXXXXXXXXXXXXXooXXXXXXXXXXXXXXXX",
"XXXXXXXXXXXXXXXXXXXXXXXXXXXXXXXXXXXXXXXXXXXXXXXXXX",
"OOOOOOOOOOOOOOOOOOOOOOOOOOOOOOOOOOOOOOOOOOOOOOOOOO",
".....OOOOOOOOOO..OOOOOOOOOOOOO.OOOOOOOOOOOOOOOOOOO",
"OOOOO..OOOOOOOOOOOOOOO...OOOOOO..OOOOOOOOOOO.OOO..",
"OOOOOO.OOOOOOOOOOOOOOOOOOOOOOOOOOOOOOOOOOO...OOOOo",
"..................................................",
"..................................................",
".....................................oo...........",
"..........  ....       .....      ................",
".......   ......................................  ",
"                                                  ",
"                                                  ",
"                                                  "
};
