/* XPM */
static char *_0137b8d5a774a74a78b8ae567124d9eJVPCfE7ya91p32EE[] = {
/* columns rows colors chars-per-pixel */
"50 50 35 1 ",
"  c #120A0A",
". c #130B0B",
"X c #1E1212",
"o c #1F1212",
"O c #1E1313",
"+ c #1F1313",
"@ c #1A1613",
"# c #151913",
"$ c #151A13",
"% c #151914",
"& c #161914",
"* c #151A14",
"= c #241C19",
"- c #281818",
"; c #321E1E",
": c #321F1F",
"> c #331F1F",
", c #352E2E",
"< c #4D4747",
"1 c #494A48",
"2 c #494B48",
"3 c gray29",
"4 c #4B4B4B",
"5 c #574E4E",
"6 c #5B5B5B",
"7 c #5D5F5B",
"8 c gray36",
"9 c gray39",
"0 c #646464",
"q c #6C6C6C",
"w c #7C7C7C",
"e c gray49",
"r c #909090",
"t c gray64",
"y c #A4A4A4",
/* pixels */
"yy:ee8ytytytttee>ee8yytttyyyyyyyyyyyyyyyyyee:ee6yy",
"yy:ee6yyytyyyyee>ee8yyyyyyyyyyyyyyyyyyyyyyee:we6yy",
"ee$66eeeeeeeeeyy&66eeeeewwwwwewweeeeeeeeewyy%77wew",
"ee:yteeeewewwwww&66wwwwwweeeeeeeeeeeeeeeeeee%tteee",
"ww:tyeeewwwweeee&86wwwwweeeeeeeeeeeeeeeeeeww$ttwee",
"wwoweyeew1339e44-wwtwww34333ee4ee4eee04eeeww+ewtee",
"-o-o-o:::;::::OOXXooOOO::>>>%%*:>$::$->>:>-X-$$::>",
"Xo.-.o::;:::::ooXXXXooO::>::$$*:>$::*=>>>>XXo$$:>>",
"wwwOow66ttyyyyyyyyywOow86yyyyyyyyyyyyre>;888yyyyyy",
"www,:6eeeeeeeeeeeeey::8weeeeeeeeeeeeery>,8weeeeewe",
"www;:6eeeeeeeeeeeewy::6weeeeeeeeeeeeery:;8eeeeeeee",
"www;:yeeeeeeeeeeeeww$$yweeeeeeeeeeeeeee%Oteeeeeeee",
"www==teeeeeeeeeeeee0$#tweeeeeeeeweeewww%@twwweeeee",
"www##teeeeeeewewwww3$$twwwewewwwwwwwwww%%twwwwwwww",
"eeeXowyyeee40e433ewe-oeyteee333ew433wwwoOwttw44wee",
"eee-oeyyeee30w333www.-eyteew333ww333www-Owytw33www",
":,ooO.oo>>>>>>>>>>>o...oo::>>>>>:;:::-XXX--XX;;;::",
"tyteeOee6ttytyyyyyyywe.ww68tyyyyyyyyyyyyywXXw68yyy",
"ttyeeOee6tyyyyytyyyyee.ww66tyyyyyyyyyyyytwXXw88yyy",
"wwett:66eweeewewwwwwtt-66wwwwwwewwwwwwwwwt##Xwwwwe",
"wwwww:tyeeeewwwwwwwwww$tywewwwwwwwwwwwwwww%%ywwwww",
"wwwww:tyeeeewwewwwwwww$tywewwwwwwwwwwwwwww%%ywwwww",
"wwwwwowwywe433113333ee%weyyeww4ww4ww1111<wXXwyywww",
":::-o-.->:>>-.-Xo:>>ooo--:>>>:::;;;;XXooXXXXX;;;::",
":::-oooo>>>>--XXo:::-oooX-:>::::::;,ooooXXX-o::;::",
"ttttttttttttrwXXw66ytytyyyyyyyyyyyttw<-ww6tytttttt",
"ttttytttttttrw-Xw66ytttyyyyyyyyyyyytw<oww6yytyttyy",
"weeeeeeewwwwrt##6wwwwweweeewwwwwwwwwt6#66wwwwwwwww",
"eeweeeeewwwwew$$ywwwwwwwwwwwwwwwwwwww1#ttwwwwwwwww",
"eeeeeeeewwwwew$%ywwwwwwwwwwwwwwwwwwww1#ttwwwwwwwww",
"ee4443eew<1wew::eyyyww333www444ww333w1Xwwtwwwwwwww",
"::%%%ooOX;,,-$::::::$$$OOOX-:::::$:;#XX--::>;;::,:",
":>%%$++++-,:-%::>:::$@$o-ooo;::>>#>:&+-oo:::::::::",
"yyyyye+-e67yttttytyyyyywwoow66ttttttyttttw::e67tyt",
"eeeewy>>6eeewwwwwwwwwweyy%$tttwwwwwwwwwwwy%%6wwwww",
"eeeewy>>7eeewwwwwwwwwweyy%%tttwwwwwwwwwwwy%%6wwwww",
"eewwww>>yeeewwewwwwwwweww*$6wwwwwwwwwwwwww$$ywwwww",
"eewwew>>rrreew00w999999ww=-qrrwwwwwwwwwwww=-rrrwww",
"ewwwee>>eyyeww33w333333ww>>wttwwwwwwwwwwww>:wtywew",
",;@@$>>>>$%>>>>:>$$$::::,->:::,:>>::$&&&%:>>>:-,::",
":>$$$>>>>$$>>>>>>&&&>>>:>>>,:::::>:>&&%%%:::::::::",
"yyyyyyyyyyye5>ww6ytyyyyytttyttw:;w68yyyyy:ytyyyytt",
"ee6yyyyyyyye5-ww6yytyyyyttyyttyyttyyyyywe:ww6wewww",
"ee6yyyyyyyye5,ew6yytyyyyttyyyyytytyyyyyww:ww8wwwww",
"88weeeeeeewt7$66wwwwwwewwwwwwwwwewwwwwwyy%88eewwww",
"yyeeeeeeeeww<$66wwwwwwewwwwwwwwwwwwwwwwwe%yyw333ww",
"yyweeeeweeww1#66wwwwwwewwwwwwwwwwwwwwwwww$tye344ww",
"eeyeee444ew1,-wwtwww44<44we4ww3www44wwwwwowetweeww",
"-oo:::::::>.-ooooooo-;;;:###::@:>@>>:::-oo$%::::::",
"ooo:::::::>-oooooooo,;:;:###::#:,%:-::-oo-%%::::::"
};
