/* XPM */
static char *result[] = {
/* columns rows colors chars-per-pixel */
"50 50 194 2 ",
"   c #211F30",
".  c #2D272E",
"X  c #322A2D",
"o  c #39322E",
"O  c #252333",
"+  c #292736",
"@  c #2B2836",
"#  c #2C2B3C",
"$  c #332F30",
"%  c #343131",
"&  c #3A3530",
"*  c #3F3930",
"=  c #3D3A3B",
"-  c #42342D",
";  c #4B3A2A",
":  c #503C29",
">  c #403832",
",  c #5A462A",
"<  c #4C4532",
"1  c #534B31",
"2  c #55473A",
"3  c #5C5434",
"4  c #7D4F23",
"5  c #60502D",
"6  c #785727",
"7  c #635A33",
"8  c #726835",
"9  c #7D7131",
"0  c #353446",
"q  c #373849",
"w  c #3A3A4B",
"e  c #3F4151",
"r  c #434456",
"t  c #484A57",
"y  c #434658",
"u  c #48475B",
"i  c #46495B",
"p  c #4A4A5B",
"a  c #505056",
"s  c #625D4B",
"d  c #74694D",
"f  c #78714B",
"g  c #767257",
"h  c #4D4E61",
"j  c #4F5261",
"k  c #535464",
"l  c #595B69",
"z  c #5A5D70",
"x  c #5D6274",
"c  c #5F6578",
"v  c #676866",
"b  c #626374",
"n  c #646977",
"m  c #666A78",
"M  c #6E6D78",
"N  c #BA5C0D",
"B  c #90641F",
"V  c #97691E",
"C  c #BF6611",
"Z  c #AC761B",
"A  c #B77D19",
"S  c #845D21",
"D  c #8A6020",
"F  c #83642C",
"G  c #947428",
"H  c #837731",
"J  c #C16918",
"K  c #C57716",
"L  c #BF8118",
"P  c #BB891F",
"I  c #8F8132",
"U  c #9E8E32",
"Y  c #9F9032",
"T  c #B1962D",
"R  c #A59536",
"E  c #AC9B34",
"W  c #B7A532",
"Q  c #BFAC32",
"!  c #C58416",
"~  c #CE8B16",
"^  c #D2991C",
"/  c #CA9E24",
"(  c #CEAE2C",
")  c #D6A523",
"_  c #D6A826",
"`  c #D9AE26",
"'  c #D1AC29",
"]  c #CCB12F",
"[  c #D9B127",
"{  c #DAB52C",
"}  c #DEBF2E",
"|  c #CCB939",
" . c #DEC22F",
".. c #DFC531",
"X. c #DBC63D",
"o. c #E1CA33",
"O. c #E3CD3A",
"+. c #8A8044",
"@. c #918A5F",
"#. c #A79D5F",
"$. c #928D74",
"%. c #B2A96C",
"&. c #CCBA43",
"*. c #E4CE41",
"=. c #E6D145",
"-. c #E7D34B",
";. c #E8D44F",
":. c #E9D653",
">. c #EAD856",
",. c #EBDA5D",
"<. c #DCD27E",
"1. c #ECDC61",
"2. c #E6D769",
"3. c #EEDF6A",
"4. c #EEDF75",
"5. c #EFD979",
"6. c #EFE06C",
"7. c #F0E16E",
"8. c #EFE070",
"9. c #F2E476",
"0. c #F3E67B",
"q. c #F4E87F",
"w. c #6B7385",
"e. c #757685",
"r. c #757D8C",
"t. c #7B7D8B",
"y. c #7C828D",
"u. c #7D8695",
"i. c #81868A",
"p. c #949187",
"a. c #838793",
"s. c #8B8E9A",
"d. c #889095",
"f. c #89909C",
"g. c #95949C",
"h. c #848FA2",
"j. c #8691A4",
"k. c #8F99A5",
"l. c #8C97A9",
"z. c #949BA6",
"x. c #919DB1",
"c. c #98A3AF",
"v. c #96A4B7",
"b. c #9BA7B5",
"n. c #A1A6AF",
"m. c #A8AAB2",
"M. c #A2AEB9",
"N. c #ABB3BC",
"B. c #DBD38B",
"V. c #EDE286",
"C. c #EFE28A",
"Z. c #F0E586",
"A. c #F6EA85",
"S. c #F7EC8A",
"D. c #F7EE93",
"F. c #F4EA9A",
"G. c #F8EF9D",
"H. c #EFE9A8",
"J. c #F4ECA5",
"K. c #F8F0A4",
"L. c #F9F1AA",
"P. c #F0EBB9",
"I. c #FAF4B9",
"U. c #A0AFC3",
"Y. c #A4B3C7",
"T. c #AFBBC3",
"R. c #A6B6CA",
"E. c #AABACE",
"W. c #B6BDC4",
"Q. c #BCBCC2",
"!. c #B0BEC9",
"~. c #BAC1C7",
"^. c #B4C3CD",
"/. c #BEC5CB",
"(. c #B6C5D0",
"). c #B8C7D1",
"_. c #BCCBD5",
"`. c #CAD2D7",
"'. c #D4D3D7",
"]. c #D3DADE",
"[. c #E1DFD5",
"{. c #F2EECB",
"}. c #FBF7CA",
"|. c #F2EED2",
" X c #FAF6D6",
".X c #D4DDE1",
"XX c #D8E1E4",
"oX c #E3E6E8",
"OX c #FDFAE2",
"+X c #FDFCEC",
"@X c #ECEFF1",
"#X c #F3F5F6",
"$X c #FAF9F5",
"%X c white",
/* pixels */
"_._._._._._._._._._._._._._._._._._._._._._._._._.^.E.E.E.E.E.E.E.E.E.E.E.E.E.E.E.E.E.E.E.E.E.E.E.E.",
"_._._._._._._._._._._._._._._._._._._._._._._._._.R.E.E.E.E.E.E.E.E.E.E.E.E.E.E.E.E.E.E.E.E.E.E.E.E.",
"_._._._._._._._._._._.)._._._._._._._._._._._._._.E.E.E.E.E.E.E.E.E.E.E.E.E.E.E.E.E.E.E.E.E.E.E.E.E.",
"_._._._._._._._._.(.^.^.^.^.^.^.^.^.^.^.^.^.^.^.^.Y.Y.Y.Y.Y.Y.Y.R.Y.Y.Y.Y.Y.Y.Y.R.E.E.E.E.E.E.E.E.E.",
"_._._._.E.E.E.E.R.k + + @ @ @ @ @ @ @ @ + @ @ @ + + + + + + + + + + # + # + + + z )._._._._.E.E.E.E.",
"_._._._.E.E.E.E.h B ' 2.V.V.V.Z.V.V.V.V.V.V.V.V.V.V.Z.Z.V.V.V.Z.|.H.{.#XP.P.$X#XN.k _._._._.E.E.E.E.",
"_._._.q # + # 0 O V [ O.O.O.o.o.O.O.O.O.O.O.O.O.O.O.O.O.O.O.O.O.A.,.4.G.3.1.D.D.%.O 0 # 0 0 0 E.E.E.",
"_.^.w '.B.B.| P ; X o o o 4 J J C C C C C C C C C C C C C C C C C C C C 4 = = = % 1 &.<.B..X'.q R.E.",
"^.y '.K.S.-.O.^ ;   6 Z T ( { { { { { { { { { { { { { { { { { { { { { { ] ] Q H O 3 ..=.;.G.G.`.e Y.",
"T.+ $XS.-.7 < ; . 6 ! ) ..o.:.9.9.9.9.9.9.9.9.9.9.9.9.9.9.9.9.9.9.9.9.9.0.4.>.| H @ < < 7 -.D.#X+ Y.",
"!.@ H.;.7 u.j.j.e V ~ [ o.:.q.7.6.S.S.S.S.S.S.S.S.S.S.S.S.S.}.OXK.S.}. XI.A.0.>.Y r c.z.d.7 :.H.+ Y.",
"!.# |.O.% v.E.E.t V ~ [ o.,.S.0.9.S.S.S.S.S.S.S.S.S.S.S.S.S.OX%XI.I.+X%X+XI.S.6.Y a _._.M.& O.Z.+ Y.",
"!.@ J.O.$ v.E.E.t V ~ [ o.,.7.6.S.S.S.S.S.S.S.S.S.S.S.S.S.S.L.I.D. X%X%X%X}.A.6.Y j _._.M.& O.{.+ Y.",
"!.@ Z.O.% v.E.E.y V ~ [ o.1.0.9.S.S.S.S.S.S.S.S.S.S.S.S.S.S.S.S.S.L.OX%X XG.A.6.Y j _._.M.& *.#X+ Y.",
"!.@ Z.O.$ v.E.E.y V ~ [ o.1.S.S.S.S.S.S.S.S.S.S.S.S.S.S.S.S.S.S.S.S.L.I.K.S.S.6.Y j _._.M.& O.P.+ Y.",
"!.@ Z.O.% v.E.E.p V ~ [ o.,.S.S.S.S.S.S.S.S.S.S.S.S.S.S.S.S.S.S.S.S.S.S.L.L.S.6.Y j _._.M.& O.V.+ Y.",
"^.@ Z.O.$ v.E.E.t V ~ [ O.,.S.S.S.S.S.S.S.S.S.S.S.S.S.S.S.S.S.S.S.S.S.S.L.L.S.6.Y j _._.M.& O.V.@ Y.",
"^.@ Z.O.$ v.E.E.t V ~ [ o.,.S.S.S.S.S.S.S.S.S.S.S.S.S.S.S.S.S.S.S.S.S.S.S.S.A.6.Y j _._.M.& O.V.@ R.",
"T.+ V.X.$ v.R.E.p B ~ [ o.,.S.0.9.S.S.S.S.S.S.S.S.S.S.S.S.S.S.S.S.S.S.S.S.S.S.6.Y j _._.M.& O.Z.@ U.",
"^.+ V.:.8 y.u.u.w V ~ [ o.;.0.7.6.q.6.9.S.S.S.S.S.S.S.S.S.S.S.S.S.S.9.0.S.S.q.>.Y e f.d.y.8 >.Z.+ R.",
"T.@ 6.A.;.f 3 , $ B ~ [ o.o.;.0.A.6.o.-.S.A.9.S.S.S.S.S.S.S.S.S.S.S.6.6.S.0.>.O.Y $ 3 s f :.S.2.@ Y.",
"^.t E 6.9.0.*.^ 6 S L )  .o.o.;.6.6.-.,.S.q.;.S.S.S.S.S.S.S.S.S.S.S.S.0.9.>...| I 9 =.8.9.9.6.E u Y.",
"_.(.i E W W W P Z ; B ~ )  .......-.9.9.9.9.9.9.9.9.9.9.9.9.9.9.9.9.9.:...o...G 1 W W W W W E e R.E.",
"_._.).y w w w w w w F L ~ ) ......o.o.o.o.o.o.o.o.o.o.o.o.o.o.o.o.o.o.o... ./ F w w w w q e e E.E.E.",
"_._._._._._._._._._.m F A ! ~ ) .... . ...} ........ . . . . . ...} ..../ A 6 n E.E.E.E.E.E.E.E.E.E.",
"E.E.E.E.E.E.E.E.E.E.E.c # 6 L L L K ! A A ! A ! ~ ~ L L L L L L L L A ! 6 0 w._._._._._._._._._._._.",
"E.E.E.E.E.E.E.E.E.E.E.E.E.w.O O + + + + +     X N N $     + + + + + + + w._._._._._._._._._._._._._.",
"E.E.E.E.^.E.E.E.E.E.E.E.E.E.R.R.R.R.R.R.l.  & ........%   b.).).).).).).)._._._._._._._._._._._._._.",
"E.E.E.E.R.E.E.E.E.E.E.E.E.E.E.E.E.E.E.E.l.> X.A.A.S.A.V.= M._._._._.)._._._.)._._._._._._._._._._._.",
"E.E.E.E._._._._._._._._._._._._._._._.v.#   - J C C C *   + l.E.E.E.E.E.E.E.E.E.E.E.E.E.E.E._._._._.",
"E.E.E.E._._._._._._._._._._._._._._.z.2 ! &.<.5.V.5.4.<.[.oXl l.E.E.E.E.E.E.E.E.E.E.E.E.E.E._._._._.",
"E.E.E.E._._._._._._._._._._._._._._.k.; ^ *.S.S.S.C.S.S.G.K.a u.E.E.E.E.E.E.E.E.E.E.E.E.E.E._._._._.",
"E.E.E.E._._._._._._._._._._._._._._.k.; ^ O.=.=.=.=.=.=.-.=.< j.E.E.E.E.E.E.E.E.E.E.E.E.E.E._._._._.",
"E.E.E.E._._._._._._._._._._._._._._.!.i.: 1 , K K o.K 5 1 1 y.Y.E.E.E.E.E.E.E.E.E.E.E.E.E.E._._._._.",
"E.E.E.E._._._._._._._._._._._._._._._.!.r.o E _ _ o.' E $ w.U.E.E.E.E.E.E.E.E.E.E.E.E.E.E.E._._._._.",
"E.E.E.E._._._._._._._._._._._._._._._._.b.- O.6.3.6.6.6.= x.E.E.E.E.E.E.E.E.E.E.E.E.E.E.E.E._._._._.",
"E.E.E.E._._._._._._._._._._._._.`.).).N.v R O.S.S.S.S.S.#.s v.E.E.E.E.E.E.E.E.E.E.E.E.E.E.E._._._._.",
"E.E.E.E._._._._._._._._._.z.m m b M n v U o.O.>.>.S.S.,.O.U v z x x x z h.E.E.E.E.E.E.E.E.E._._._._.",
"E.E.E.E._._._._._._._._.k.g H +.@.@.@.#.,.1.1.,.1.S.S.1.,.1.#.@.p.$.p.g.r.h.E.E.E.E.E.E.E.E.)._._._.",
"E.E.E.E._._._._._._.).k.d T o.-.1.1.1.1.1.,.1.1.1.1.1.,.,.,.1.1.C.4.V.F.%.g h.E.E.E.E.E.E.E._._._._.",
"E.E.E.E._._._._._._._.x S ^ [ ` ` ` ` ` ` ` ` ` ` ` ` ` ` ` ` ` ` ` ` ` [ F z E.E.E.E.E.E.E.)._._._.",
"E.E.E.E._._._.j.u.u.u.t , D D D S S B S S B D D D D D D D D D S D D D D S , u r.r.r.h.E.E.E._._._._.",
"E.E.E.E._._._.y # q q q k M M M l q q q r M M M M w w w w b M M M p q q w k M M M l y E.E.E._._._._.",
"E.E.E.E._._.`.y 0 j z z N.#X#X#XQ.z z z t.#X#X#X@Xz z z z ].#X$X#Xg.z z z n.#X$X#XQ.y E.E.E._._._._.",
"E.E.E.E._._._.y O w u u z.XXXXXXn.u u u m XXXX.X].p u u r /..XXX.Xt.u u u s..XXXoXQ.y E.E.E._._._._.",
"E.E.E.E._._._.y O w u u z.XXXXXXn.u u u m XXXX.X].h u u r `..XXXXXt.u u u s.XXXX@XQ.y E.E.E._._._._.",
"E.E.E.E.E.E.E.w # l b b s.`.`.~.c.b b b e.`.`.Q.Q.M b b b N./././.a.b b b k././.`.m.u _._._._._._._.",
"E.E.E.E.E.E.E.r s.'.XX.Xa.u u t a..X.X.XQ.r u u h .X.X.XXXb u u u m.XX.X.Xk.u u j h u _._._._._._._.",
"E.E.E.E.E.E.E.r f.`.XX].a.y y r t.].].XXW.y r r p ]..X.X.Xz r r r n..X.X.Xk.r r h h u _._._._._._._.",
"E.E.E.E.E.E.E.r f.N.T.T.x     O l T.T.T.k.      + N.T.T.T.w       u.T.T.T.M     0 w u _._._._._._._."
};
