/* XPM */
static char *e425183c64264f7babdb5c6d3bb9de38TngTepS4EIjszkcC[] = {
/* columns rows colors chars-per-pixel */
"16 16 28 1 ",
"  c #352E28",
". c #38302A",
"X c #39312A",
"o c #3A322B",
"O c #3B332C",
"+ c #3C342C",
"@ c #3E362F",
"# c #403830",
"$ c #423931",
"% c #443B33",
"& c #453C33",
"* c #463D34",
"= c #473D35",
"- c #483F36",
"; c #493F36",
": c #4E433A",
"> c #4F453B",
", c #50453B",
"< c #50453C",
"1 c #50463C",
"2 c #52483D",
"3 c #53483E",
"4 c #554A3F",
"5 c #564A40",
"6 c #564B40",
"7 c #574B40",
"8 c #594D42",
"9 c #5A4E43",
/* pixels */
"@:42161#:6411111",
"1@16OO.O11411133",
"414 66:$@ .,1373",
"1,@66781@;*.1,31",
"41@44677%%<;.,,4",
"2O188779%171.$,>",
"1.1187$1#179.3#1",
".:6:1:6O1637O16O",
".187::61#64:1&3.",
".11961111@4,1&#O",
"O11;:667<1#;,,;;",
"@,:,%16871,.41;;",
":*>*;>>:1;1%O*;,",
",;*$%:1:61%#&.11",
">>;>;@%#;%#1,;4,",
">616;;::;;:,1411"
};
