/* XPM */
static char *_3237f0198f84cd09ff18aafb24a57d9QDCN1fDHNNRTPxlH[] = {
/* columns rows colors chars-per-pixel */
"50 50 2 1 ",
"  c #AABACE",
". c #BCCBD5",
/* pixels */
".........................                         ",
".........................                         ",
".........................                         ",
".........................                         ",
"....                 ....    .................    ",
"....                 ....    .................    ",
"....                 ....    .................    ",
"....                 ....    .................    ",
"....                 ....    .................    ",
"....                 ....    .................    ",
"....                 ....    .................    ",
"....                 ....    .................    ",
"....                 ....    .................    ",
"....                 ....    .................    ",
"....                 ....    .................    ",
"....                 ....    .................    ",
"....                 ....    .................    ",
"....                 ....    .................    ",
"....                 ....    .................    ",
"....                 ....    .................    ",
"....                 ....    .................    ",
".........................                         ",
".........................                         ",
".........................                         ",
".........................                         ",
"                         .........................",
"                         .........................",
"                         .........................",
"                         .........................",
"    .................    ....                 ....",
"    .................    ....                 ....",
"    .................    ....                 ....",
"    .................    ....                 ....",
"    .................    ....                 ....",
"    .................    ....                 ....",
"    .................    ....                 ....",
"    .................    ....                 ....",
"    .................    ....                 ....",
"    .................    ....                 ....",
"    .................    ....                 ....",
"    .................    ....                 ....",
"    .................    ....                 ....",
"    .................    ....                 ....",
"    .................    ....                 ....",
"    .................    ....                 ....",
"    .................    ....                 ....",
"                         .........................",
"                         .........................",
"                         .........................",
"                         ........................."
};
